<?xml version="1.0" standalone="no"?>
<!DOCTYPE svg PUBLIC "-//W3C//DTD SVG 20010904//EN"
 "http://www.w3.org/TR/2001/REC-SVG-20010904/DTD/svg10.dtd">
<svg version="1.0" xmlns="http://www.w3.org/2000/svg"
 width="1086.000000pt" height="1086.000000pt" viewBox="0 0 1086.000000 1086.000000"
 preserveAspectRatio="xMidYMid meet">
<metadata>
Created by potrace 1.11, written by Peter Selinger 2001-2013
</metadata>
<g transform="translate(0.000000,1086.000000) scale(0.100000,-0.100000)"
fill="#000000" stroke="none">
<path d="M5237 10854 c-1 -1 -58 -5 -127 -8 -69 -4 -141 -9 -160 -11 -19 -2
-60 -6 -90 -9 -209 -20 -523 -76 -745 -133 -600 -152 -1145 -394 -1670 -741
-88 -58 -164 -109 -170 -114 -5 -5 -73 -57 -149 -116 -913 -703 -1570 -1664
-1906 -2787 -34 -115 -97 -382 -119 -505 -12 -63 -23 -124 -25 -135 -2 -11 -7
-42 -10 -70 -4 -27 -8 -61 -11 -75 -4 -23 -12 -96 -20 -175 -3 -29 -14 -167
-21 -255 -3 -54 -4 -492 0 -570 9 -171 43 -478 71 -635 79 -433 188 -803 352
-1190 64 -152 207 -441 283 -570 29 -49 61 -106 72 -125 60 -105 334 -500 368
-530 3 -3 21 -25 40 -50 149 -195 527 -582 745 -764 296 -246 616 -465 920
-628 111 -59 374 -188 385 -188 5 0 25 -9 47 -20 156 -81 673 -252 923 -305 8
-2 35 -8 60 -14 25 -5 59 -12 75 -15 17 -3 41 -8 55 -11 14 -3 41 -8 60 -11
19 -2 58 -9 85 -14 56 -10 110 -18 170 -26 22 -2 57 -7 78 -9 192 -25 297 -30
622 -30 281 0 477 7 556 20 13 2 51 6 84 10 33 3 69 8 80 11 11 2 41 6 66 8
78 8 336 57 478 92 36 9 72 17 80 19 82 17 484 143 556 176 11 4 56 22 100 39
310 121 657 301 960 498 76 50 334 233 369 262 11 10 64 53 116 96 228 186
422 375 675 658 6 6 39 47 75 91 35 44 67 82 70 85 17 16 161 215 242 335 108
162 114 171 233 375 187 323 380 790 495 1200 43 155 112 467 129 590 6 41 13
89 15 105 10 61 17 122 22 180 3 33 7 74 10 90 23 161 22 778 -1 970 -2 17 -6
55 -9 85 -3 30 -8 72 -11 93 -3 20 -7 52 -9 70 -54 424 -196 938 -381 1372
-39 93 -202 427 -238 490 -7 11 -30 52 -52 90 -57 101 -54 95 -125 207 -108
170 -297 430 -410 562 -219 257 -464 503 -684 687 -16 13 -46 38 -65 55 -20
17 -54 44 -76 60 -22 16 -42 31 -45 34 -13 14 -168 126 -280 202 -536 363
-1151 632 -1787 782 -125 30 -404 82 -485 91 -29 3 -64 8 -78 10 -24 4 -77 10
-170 19 -131 14 -681 30 -693 20z"/>
</g>
</svg>
